<svg xmlns="http://www.w3.org/2000/svg" width="79" height="32" viewBox="0 0 79 32" fill="none">
  <path d="M0.333344 22V9.65196H2.79934L7.76734 16.312C7.83934 16.396 7.92934 16.516 8.03734 16.672C8.14534 16.816 8.24734 16.96 8.34334 17.104C8.43934 17.248 8.50534 17.362 8.54134 17.446H8.63134C8.63134 17.242 8.63134 17.044 8.63134 16.852C8.63134 16.648 8.63134 16.468 8.63134 16.312V9.65196H11.1693V22H8.70334L3.62734 15.178C3.50734 15.01 3.38134 14.824 3.24934 14.62C3.11734 14.416 3.02134 14.26 2.96134 14.152H2.87134C2.87134 14.332 2.87134 14.512 2.87134 14.692C2.87134 14.86 2.87134 15.022 2.87134 15.178V22H0.333344Z" fill="#0A0D12"/>
  <path d="M12.9677 11.146V8.98596H15.4697V11.146H12.9677ZM12.9677 22V12.532H15.4697V22H12.9677Z" fill="#0A0D12"/>
  <path d="M21.3485 22.216C20.3045 22.216 19.4285 22.042 18.7205 21.694C18.0125 21.334 17.4785 20.788 17.1185 20.056C16.7585 19.324 16.5785 18.394 16.5785 17.266C16.5785 16.126 16.7585 15.196 17.1185 14.476C17.4785 13.744 18.0065 13.204 18.7025 12.856C19.4105 12.496 20.2745 12.316 21.2945 12.316C22.2545 12.316 23.0645 12.49 23.7245 12.838C24.3845 13.174 24.8825 13.702 25.2185 14.422C25.5545 15.13 25.7225 16.048 25.7225 17.176V17.824H19.1165C19.1405 18.376 19.2245 18.844 19.3685 19.228C19.5245 19.612 19.7585 19.9 20.0705 20.092C20.3945 20.272 20.8205 20.362 21.3485 20.362C21.6365 20.362 21.8945 20.326 22.1225 20.254C22.3625 20.182 22.5665 20.074 22.7345 19.93C22.9025 19.786 23.0345 19.606 23.1305 19.39C23.2265 19.174 23.2745 18.928 23.2745 18.652H25.7225C25.7225 19.252 25.6145 19.774 25.3985 20.218C25.1825 20.662 24.8825 21.034 24.4985 21.334C24.1145 21.622 23.6525 21.844 23.1125 22C22.5845 22.144 21.9965 22.216 21.3485 22.216ZM19.1525 16.24H23.1485C23.1485 15.88 23.1005 15.568 23.0045 15.304C22.9205 15.04 22.8005 14.824 22.6445 14.656C22.4885 14.488 22.2965 14.368 22.0685 14.296C21.8525 14.212 21.6065 14.17 21.3305 14.17C20.8745 14.17 20.4905 14.248 20.1785 14.404C19.8785 14.548 19.6445 14.776 19.4765 15.088C19.3205 15.388 19.2125 15.772 19.1525 16.24Z" fill="#0A0D12"/>
  <path d="M29.6642 22.216C29.0642 22.216 28.5782 22.108 28.2062 21.892C27.8342 21.676 27.5642 21.388 27.3962 21.028C27.2282 20.656 27.1442 20.248 27.1442 19.804V14.458H25.9742V12.532H27.2342L27.7022 9.83196H29.6462V12.532H31.3742V14.458H29.6462V19.39C29.6462 19.678 29.7122 19.9 29.8442 20.056C29.9762 20.2 30.1922 20.272 30.4922 20.272H31.3742V21.928C31.2302 21.976 31.0622 22.018 30.8702 22.054C30.6782 22.102 30.4742 22.138 30.2582 22.162C30.0422 22.198 29.8442 22.216 29.6642 22.216Z" fill="#0A0D12"/>
  <path d="M31.5325 22V20.938L36.1585 14.458H31.8205V12.532H39.7765V13.558L35.1325 20.056H39.9565V22H31.5325Z" fill="#0A0D12"/>
  <path d="M44.7185 22.216C44.0585 22.216 43.4645 22.144 42.9365 22C42.4085 21.856 41.9585 21.658 41.5865 21.406C41.2145 21.142 40.9265 20.83 40.7225 20.47C40.5305 20.11 40.4345 19.702 40.4345 19.246C40.4345 19.198 40.4345 19.15 40.4345 19.102C40.4345 19.054 40.4405 19.018 40.4525 18.994H42.8645C42.8645 19.018 42.8645 19.042 42.8645 19.066C42.8645 19.09 42.8645 19.114 42.8645 19.138C42.8765 19.438 42.9725 19.684 43.1525 19.876C43.3325 20.056 43.5665 20.188 43.8545 20.272C44.1545 20.356 44.4665 20.398 44.7905 20.398C45.0785 20.398 45.3545 20.374 45.6185 20.326C45.8945 20.266 46.1225 20.164 46.3025 20.02C46.4945 19.876 46.5905 19.69 46.5905 19.462C46.5905 19.174 46.4705 18.952 46.2305 18.796C46.0025 18.64 45.6965 18.514 45.3125 18.418C44.9405 18.322 44.5325 18.214 44.0885 18.094C43.6805 17.998 43.2725 17.89 42.8645 17.77C42.4565 17.638 42.0845 17.47 41.7485 17.266C41.4245 17.062 41.1605 16.798 40.9565 16.474C40.7525 16.138 40.6505 15.718 40.6505 15.214C40.6505 14.722 40.7585 14.296 40.9745 13.936C41.1905 13.564 41.4845 13.258 41.8565 13.018C42.2405 12.778 42.6845 12.604 43.1885 12.496C43.7045 12.376 44.2565 12.316 44.8445 12.316C45.3965 12.316 45.9125 12.376 46.3925 12.496C46.8725 12.604 47.2925 12.772 47.6525 13C48.0125 13.216 48.2945 13.492 48.4985 13.828C48.7025 14.152 48.8045 14.518 48.8045 14.926C48.8045 15.01 48.8045 15.088 48.8045 15.16C48.8045 15.232 48.7985 15.28 48.7865 15.304H46.3925V15.16C46.3925 14.944 46.3265 14.764 46.1945 14.62C46.0625 14.464 45.8705 14.344 45.6185 14.26C45.3785 14.176 45.0845 14.134 44.7365 14.134C44.4965 14.134 44.2745 14.152 44.0705 14.188C43.8785 14.224 43.7105 14.278 43.5665 14.35C43.4225 14.422 43.3085 14.512 43.2245 14.62C43.1525 14.716 43.1165 14.836 43.1165 14.98C43.1165 15.184 43.2005 15.352 43.3685 15.484C43.5485 15.604 43.7825 15.706 44.0705 15.79C44.3585 15.874 44.6765 15.964 45.0245 16.06C45.4565 16.18 45.9065 16.3 46.3745 16.42C46.8545 16.528 47.2985 16.678 47.7065 16.87C48.1145 17.062 48.4445 17.338 48.6965 17.698C48.9485 18.046 49.0745 18.52 49.0745 19.12C49.0745 19.696 48.9605 20.182 48.7325 20.578C48.5165 20.974 48.2105 21.292 47.8145 21.532C47.4185 21.772 46.9565 21.946 46.4285 22.054C45.9005 22.162 45.3305 22.216 44.7185 22.216Z" fill="#0A0D12"/>
  <path d="M54.3245 22.216C53.3165 22.216 52.4705 22.042 51.7865 21.694C51.1025 21.334 50.5805 20.788 50.2205 20.056C49.8725 19.312 49.6985 18.382 49.6985 17.266C49.6985 16.126 49.8725 15.196 50.2205 14.476C50.5805 13.744 51.1025 13.198 51.7865 12.838C52.4825 12.478 53.3285 12.298 54.3245 12.298C54.9725 12.298 55.5545 12.376 56.0705 12.532C56.5985 12.688 57.0545 12.928 57.4385 13.252C57.8225 13.576 58.1105 13.978 58.3025 14.458C58.5065 14.926 58.6085 15.484 58.6085 16.132H56.1065C56.1065 15.7 56.0405 15.346 55.9085 15.07C55.7765 14.794 55.5725 14.584 55.2965 14.44C55.0325 14.296 54.6965 14.224 54.2885 14.224C53.8085 14.224 53.4185 14.332 53.1185 14.548C52.8185 14.764 52.5965 15.082 52.4525 15.502C52.3085 15.922 52.2365 16.444 52.2365 17.068V17.482C52.2365 18.094 52.3085 18.61 52.4525 19.03C52.6085 19.45 52.8425 19.768 53.1545 19.984C53.4665 20.188 53.8745 20.29 54.3785 20.29C54.7865 20.29 55.1225 20.218 55.3865 20.074C55.6625 19.93 55.8725 19.714 56.0165 19.426C56.1605 19.138 56.2325 18.79 56.2325 18.382H58.6085C58.6085 18.994 58.5065 19.54 58.3025 20.02C58.1105 20.5 57.8225 20.902 57.4385 21.226C57.0665 21.55 56.6165 21.796 56.0885 21.964C55.5605 22.132 54.9725 22.216 54.3245 22.216Z" fill="#0A0D12"/>
  <path d="M59.7648 22V8.98596H62.2668V13.576H62.3928C62.5968 13.324 62.8368 13.108 63.1128 12.928C63.4008 12.736 63.7188 12.586 64.0668 12.478C64.4268 12.37 64.8168 12.316 65.2368 12.316C65.8608 12.316 66.4068 12.43 66.8748 12.658C67.3428 12.886 67.7028 13.246 67.9548 13.738C68.2188 14.23 68.3508 14.872 68.3508 15.664V22H65.8488V16.06C65.8488 15.76 65.8128 15.508 65.7408 15.304C65.6688 15.088 65.5608 14.914 65.4168 14.782C65.2848 14.638 65.1168 14.536 64.9128 14.476C64.7088 14.416 64.4808 14.386 64.2288 14.386C63.8568 14.386 63.5208 14.476 63.2208 14.656C62.9208 14.836 62.6868 15.082 62.5188 15.394C62.3508 15.706 62.2668 16.066 62.2668 16.474V22H59.7648Z" fill="#0A0D12"/>
  <path d="M74.175 22.216C73.131 22.216 72.255 22.042 71.547 21.694C70.839 21.334 70.305 20.788 69.945 20.056C69.585 19.324 69.405 18.394 69.405 17.266C69.405 16.126 69.585 15.196 69.945 14.476C70.305 13.744 70.833 13.204 71.529 12.856C72.237 12.496 73.101 12.316 74.121 12.316C75.081 12.316 75.891 12.49 76.551 12.838C77.211 13.174 77.709 13.702 78.045 14.422C78.381 15.13 78.549 16.048 78.549 17.176V17.824H71.943C71.967 18.376 72.051 18.844 72.195 19.228C72.351 19.612 72.585 19.9 72.897 20.092C73.221 20.272 73.647 20.362 74.175 20.362C74.463 20.362 74.721 20.326 74.949 20.254C75.189 20.182 75.393 20.074 75.561 19.93C75.729 19.786 75.861 19.606 75.957 19.39C76.053 19.174 76.101 18.928 76.101 18.652H78.549C78.549 19.252 78.441 19.774 78.225 20.218C78.009 20.662 77.709 21.034 77.325 21.334C76.941 21.622 76.479 21.844 75.939 22C75.411 22.144 74.823 22.216 74.175 22.216ZM71.979 16.24H75.975C75.975 15.88 75.927 15.568 75.831 15.304C75.747 15.04 75.627 14.824 75.471 14.656C75.315 14.488 75.123 14.368 74.895 14.296C74.679 14.212 74.433 14.17 74.157 14.17C73.701 14.17 73.317 14.248 73.005 14.404C72.705 14.548 72.471 14.776 72.303 15.088C72.147 15.388 72.039 15.772 71.979 16.24Z" fill="#0A0D12"/>
</svg>