<svg xmlns="http://www.w3.org/2000/svg" width="27" height="32" viewBox="0 0 27 32" fill="none">
  <g clip-path="url(#clip0_2008_39)">
    <path d="M16.7258 3.3692L14.1038 2.66663L11.8942 10.913L9.89931 3.46812L7.27723 4.1707L9.43257 12.2144L4.06413 6.84595L2.14467 8.76542L8.03317 14.654L0.699979 12.689L-0.00259399 15.311L8.00984 17.458C7.9181 17.0623 7.86957 16.65 7.86957 16.2264C7.86957 13.228 10.3002 10.7974 13.2986 10.7974C16.2971 10.7974 18.7277 13.228 18.7277 16.2264C18.7277 16.6473 18.6798 17.057 18.5892 17.4504L25.871 19.4015L26.5735 16.7795L18.5293 14.624L25.8629 12.659L25.1603 10.037L17.1164 12.1923L22.4848 6.82391L20.5653 4.90445L14.7585 10.7113L16.7258 3.3692Z" fill="#FF4405"/>
    <path d="M18.5815 17.4809C18.3567 18.4313 17.8821 19.2851 17.2309 19.9692L22.5063 25.2446L24.4257 23.3251L18.5815 17.4809Z" fill="#FF4405"/>
    <path d="M17.1777 20.0243C16.5186 20.6975 15.6857 21.1998 14.7517 21.4587L16.6713 28.6227L19.2933 27.9201L17.1777 20.0243Z" fill="#FF4405"/>
    <path d="M14.6538 21.4849C14.2205 21.5963 13.7663 21.6555 13.2982 21.6555C12.7967 21.6555 12.3111 21.5875 11.8501 21.4602L9.92878 28.6308L12.5508 29.3333L14.6538 21.4849Z" fill="#FF4405"/>
    <path d="M11.7574 21.4338C10.8377 21.162 10.0196 20.6533 9.37401 19.9782L4.08567 25.2666L6.00514 27.1861L11.7574 21.4338Z" fill="#FF4405"/>
    <path d="M9.33043 19.9315C8.69589 19.2522 8.23369 18.4098 8.01369 17.474L0.708101 19.4316L1.41067 22.0536L9.33043 19.9315Z" fill="#FF4405"/>
  </g>
  <defs>
    <clipPath id="clip0_2008_39">
      <rect width="26.6667" height="32" fill="white"/>
    </clipPath>
  </defs>
</svg>