<svg xmlns="http://www.w3.org/2000/svg" width="94" height="32" viewBox="0 0 94 32" fill="none">
  <path d="M13.9466 15.48C13.9466 17.32 13.3533 18.9 12.1666 20.22C10.9933 21.54 9.35329 22.2 7.24663 22.2C5.12663 22.2 3.49996 21.54 2.36663 20.22C1.23329 18.9 0.666626 17.3333 0.666626 15.52C0.666626 13.6267 1.26663 12.0333 2.46663 10.74C3.66663 9.44666 5.28663 8.79999 7.32663 8.79999C9.40663 8.79999 11.0266 9.45999 12.1866 10.78C13.36 12.0867 13.9466 13.6533 13.9466 15.48ZM11.0466 15.56C11.0466 14.1733 10.7266 13.0933 10.0866 12.32C9.44663 11.5467 8.51996 11.16 7.30663 11.16C6.01329 11.16 5.06663 11.5733 4.46663 12.4C3.86663 13.2133 3.56663 14.2333 3.56663 15.46C3.56663 16.6467 3.85996 17.6733 4.44663 18.54C5.03329 19.4067 6.01329 19.84 7.38663 19.84C8.65329 19.84 9.57996 19.4467 10.1666 18.66C10.7533 17.86 11.0466 16.8267 11.0466 15.56Z" fill="#0A0D12"/>
  <path d="M25.1449 22H21.3649V20.32C21.1116 20.84 20.7382 21.2867 20.2449 21.66C19.7516 22.02 19.0982 22.2 18.2849 22.2C17.0982 22.2 16.1649 21.7933 15.4849 20.98C14.8049 20.1667 14.4649 19.06 14.4649 17.66C14.4649 16.3133 14.7982 15.1667 15.4649 14.22C16.1316 13.2733 17.1382 12.8 18.4849 12.8C19.2182 12.8 19.8182 12.9467 20.2849 13.24C20.7516 13.5333 21.1116 13.9067 21.3649 14.36V10.2H19.5649V8.23999H23.9449V20.06H25.1449V22ZM21.3649 17.44V17.22C21.3649 16.4733 21.1649 15.8933 20.7649 15.48C20.3782 15.0533 19.8916 14.84 19.3049 14.84C18.7316 14.84 18.2249 15.0533 17.7849 15.48C17.3582 15.9067 17.1449 16.58 17.1449 17.5C17.1449 18.3667 17.3449 19.0267 17.7449 19.48C18.1449 19.9333 18.6182 20.16 19.1649 20.16C19.8449 20.16 20.3782 19.8733 20.7649 19.3C21.1649 18.7267 21.3649 18.1067 21.3649 17.44Z" fill="#0A0D12"/>
  <path d="M34.2912 19.16C34.2245 19.96 33.8312 20.6667 33.1112 21.28C32.3912 21.8933 31.3845 22.2 30.0912 22.2C28.7445 22.2 27.6312 21.82 26.7512 21.06C25.8845 20.3 25.4512 19.1667 25.4512 17.66C25.4512 16.2733 25.8445 15.12 26.6312 14.2C27.4312 13.2667 28.5445 12.8 29.9712 12.8C31.2245 12.8 32.2378 13.16 33.0112 13.88C33.7978 14.6 34.1978 15.5467 34.2112 16.72C34.2112 17.16 34.1645 17.5933 34.0712 18.02H28.1512C28.2978 19.4467 29.0045 20.16 30.2712 20.16C30.9645 20.16 31.4312 19.9933 31.6712 19.66C31.9245 19.3267 32.0778 19.0267 32.1312 18.76L34.2912 19.16ZM31.5512 16.52C31.6045 16.0667 31.5045 15.64 31.2512 15.24C31.0112 14.84 30.5845 14.64 29.9712 14.64C29.4378 14.64 29.0245 14.8133 28.7312 15.16C28.4378 15.5067 28.2512 15.96 28.1712 16.52H31.5512Z" fill="#0A0D12"/>
  <path d="M35.6591 13.62C36.4458 13.3 37.0991 13.0867 37.6191 12.98C38.1525 12.86 38.7858 12.8 39.5191 12.8C40.4925 12.8 41.3325 13.0533 42.0391 13.56C42.7458 14.0667 43.0991 14.8333 43.0991 15.86V19.78C43.0991 20.2467 43.3058 20.48 43.7191 20.48C43.8391 20.48 43.9658 20.46 44.0991 20.42L44.1191 21.78C43.5991 22.06 43.0591 22.2 42.4991 22.2C41.3125 22.2 40.6525 21.6067 40.5191 20.42V20.4C40.2658 20.8533 39.8991 21.2667 39.4191 21.64C38.9525 22.0133 38.3525 22.2 37.6191 22.2C36.9658 22.2 36.3391 22.0067 35.7391 21.62C35.1391 21.2333 34.8391 20.5667 34.8391 19.62C34.8391 18.5133 35.2791 17.78 36.1591 17.42C37.0525 17.06 38.0125 16.88 39.0391 16.88C39.6125 16.88 40.1058 16.9067 40.5191 16.96V16.66C40.5191 16.1933 40.4525 15.74 40.3191 15.3C40.1991 14.86 39.7725 14.64 39.0391 14.64C38.7725 14.64 38.5258 14.66 38.2991 14.7C38.0858 14.7267 37.8725 14.7933 37.6591 14.9L37.3191 16.18L35.2591 15.96L35.6591 13.62ZM40.5191 18.32V18.2C40.3058 18.1733 40.0858 18.1467 39.8591 18.12C39.6458 18.0933 39.4325 18.08 39.2191 18.08C38.7658 18.08 38.3658 18.1667 38.0191 18.34C37.6725 18.5 37.4991 18.8267 37.4991 19.32C37.4991 19.6133 37.5791 19.86 37.7391 20.06C37.8991 20.26 38.1725 20.36 38.5591 20.36C39.0125 20.36 39.4325 20.2 39.8191 19.88C40.2191 19.5467 40.4525 19.0267 40.5191 18.32Z" fill="#0A0D12"/>
  <path d="M54.0763 17.5C54.0763 18.9267 53.6097 20.0667 52.6763 20.92C51.743 21.7733 50.5563 22.2 49.1163 22.2C47.7296 22.2 46.5963 21.8 45.7163 21C44.8496 20.1867 44.4163 19.0533 44.4163 17.6C44.4163 16.28 44.8163 15.1467 45.6163 14.2C46.4163 13.2533 47.6296 12.78 49.2563 12.78C50.883 12.78 52.0896 13.2533 52.8763 14.2C53.6763 15.1333 54.0763 16.2333 54.0763 17.5ZM51.4163 17.42C51.4163 16.5 51.203 15.8267 50.7763 15.4C50.3496 14.9733 49.8296 14.76 49.2163 14.76C48.5496 14.76 48.023 15 47.6363 15.48C47.263 15.9467 47.0763 16.6067 47.0763 17.46C47.0763 18.2333 47.2496 18.8867 47.5963 19.42C47.9563 19.9533 48.4896 20.22 49.1963 20.22C49.863 20.22 50.3963 19.9733 50.7963 19.48C51.2096 18.9733 51.4163 18.2867 51.4163 17.42Z" fill="#0A0D12"/>
  <path d="M64.1954 22H54.4354V19.72H55.8354V11.28H54.4354V8.99999H60.3354V11.28H58.5154V19.72H61.9154L62.3154 17.2L64.5954 17.4L64.1954 22Z" fill="#0A0D12"/>
  <path d="M65.7677 13.62C66.5544 13.3 67.2077 13.0867 67.7277 12.98C68.2611 12.86 68.8944 12.8 69.6277 12.8C70.6011 12.8 71.4411 13.0533 72.1477 13.56C72.8544 14.0667 73.2077 14.8333 73.2077 15.86V19.78C73.2077 20.2467 73.4144 20.48 73.8277 20.48C73.9477 20.48 74.0744 20.46 74.2077 20.42L74.2277 21.78C73.7077 22.06 73.1677 22.2 72.6077 22.2C71.4211 22.2 70.7611 21.6067 70.6277 20.42V20.4C70.3744 20.8533 70.0077 21.2667 69.5277 21.64C69.0611 22.0133 68.4611 22.2 67.7277 22.2C67.0744 22.2 66.4477 22.0067 65.8477 21.62C65.2477 21.2333 64.9477 20.5667 64.9477 19.62C64.9477 18.5133 65.3877 17.78 66.2677 17.42C67.1611 17.06 68.1211 16.88 69.1477 16.88C69.7211 16.88 70.2144 16.9067 70.6277 16.96V16.66C70.6277 16.1933 70.5611 15.74 70.4277 15.3C70.3077 14.86 69.8811 14.64 69.1477 14.64C68.8811 14.64 68.6344 14.66 68.4077 14.7C68.1944 14.7267 67.9811 14.7933 67.7677 14.9L67.4277 16.18L65.3677 15.96L65.7677 13.62ZM70.6277 18.32V18.2C70.4144 18.1733 70.1944 18.1467 69.9677 18.12C69.7544 18.0933 69.5411 18.08 69.3277 18.08C68.8744 18.08 68.4744 18.1667 68.1277 18.34C67.7811 18.5 67.6077 18.8267 67.6077 19.32C67.6077 19.6133 67.6877 19.86 67.8477 20.06C68.0077 20.26 68.2811 20.36 68.6677 20.36C69.1211 20.36 69.5411 20.2 69.9277 19.88C70.3277 19.5467 70.5611 19.0267 70.6277 18.32Z" fill="#0A0D12"/>
  <path d="M84.7249 17.28C84.7249 18.6133 84.3716 19.7667 83.6649 20.74C82.9716 21.7133 81.9449 22.2 80.5849 22.2C79.2116 22.2 78.2449 21.68 77.6849 20.64C77.6582 20.8667 77.6249 21.0933 77.5849 21.32C77.5582 21.5467 77.5249 21.7733 77.4849 22H74.9049C74.9982 21.5333 75.0782 21.0667 75.1449 20.6C75.2116 20.1333 75.2449 19.6733 75.2449 19.22V10.2H74.0449V8.23999H77.8249V14.7C78.0649 14.18 78.4249 13.7333 78.9049 13.36C79.3982 12.9867 80.0516 12.8 80.8649 12.8C81.9982 12.8 82.9249 13.1933 83.6449 13.98C84.3649 14.7667 84.7249 15.8667 84.7249 17.28ZM82.0449 17.5C82.0449 16.6333 81.8582 15.9733 81.4849 15.52C81.1116 15.0667 80.6182 14.84 80.0049 14.84C79.3116 14.84 78.7716 15.0933 78.3849 15.6C78.0116 16.1067 77.8249 16.6933 77.8249 17.36V17.58C77.8249 18.3133 78.0049 18.9333 78.3649 19.44C78.7382 19.9333 79.2649 20.18 79.9449 20.18C80.5316 20.18 81.0249 19.9667 81.4249 19.54C81.8382 19.1 82.0449 18.42 82.0449 17.5Z" fill="#0A0D12"/>
  <path d="M93.4405 19.24C93.4405 20.24 93.0405 20.9867 92.2405 21.48C91.4539 21.96 90.4272 22.2 89.1605 22.2C88.5072 22.2 87.8472 22.1333 87.1805 22C86.5272 21.8533 85.9005 21.6267 85.3005 21.32L85.6605 18.8L87.6605 19.02V20.14C87.9005 20.22 88.1539 20.2733 88.4205 20.3C88.6872 20.3133 88.8872 20.32 89.0205 20.32C89.5139 20.32 89.9405 20.24 90.3005 20.08C90.6605 19.92 90.8405 19.68 90.8405 19.36C90.8405 18.9733 90.5672 18.72 90.0205 18.6C89.4739 18.48 88.8405 18.36 88.1205 18.24C87.4005 18.12 86.7672 17.8733 86.2205 17.5C85.6739 17.1267 85.4005 16.4933 85.4005 15.6C85.4005 14.4933 85.8272 13.7533 86.6805 13.38C87.5472 12.9933 88.4405 12.8 89.3605 12.8C90.5605 12.8 91.6872 13.0733 92.7405 13.62L92.9605 15.92L90.9605 16.14L90.8005 14.88C90.3605 14.7333 89.8872 14.66 89.3805 14.66C89.0472 14.66 88.7605 14.7333 88.5205 14.88C88.2939 15.0133 88.1805 15.2267 88.1805 15.52C88.1805 15.9067 88.4405 16.1667 88.9605 16.3C89.4939 16.42 90.1072 16.54 90.8005 16.66C91.5072 16.78 92.1205 17.0267 92.6405 17.4C93.1739 17.76 93.4405 18.3733 93.4405 19.24Z" fill="#0A0D12"/>
</svg>