<svg xmlns="http://www.w3.org/2000/svg" width="72" height="32" viewBox="0 0 72 32" fill="none">
  <path fill-rule="evenodd" clip-rule="evenodd" d="M13.8233 15.2332C13.8233 18.7712 11.5033 21.4779 8.21667 22.0386V22.5992C8.21667 23.5079 8.60333 23.8366 9.53133 23.8366H71.4533V25.9439H9.37667C6.80533 25.9439 5.684 25.0159 5.684 22.7539V22.0579C2.33933 21.5166 0 18.7906 0 15.2332C0 11.2506 2.93867 8.31189 6.92133 8.31189C10.8847 8.31189 13.8233 11.2506 13.8233 15.2332ZM2.91933 15.2332C2.91933 17.7659 4.582 19.6412 6.902 19.6412C9.222 19.6412 10.904 17.7659 10.904 15.2332C10.904 12.7006 9.222 10.8059 6.902 10.8059C4.582 10.8059 2.91933 12.7006 2.91933 15.2332Z" fill="#0A0D12"/>
  <path d="M19.2604 19.7572C20.4397 19.7572 21.271 18.8292 21.271 17.5919V12.2559H23.9777V21.9999H21.271V20.6466C20.7297 21.5746 19.647 22.1546 18.313 22.1546C16.1284 22.1546 14.6977 20.5499 14.6977 18.3266V12.2559H17.385V17.7272C17.385 18.9066 18.1584 19.7572 19.2604 19.7572Z" fill="#0A0D12"/>
  <path fill-rule="evenodd" clip-rule="evenodd" d="M33.4705 15.7359C33.4705 13.5319 31.6725 12.1012 29.2172 12.1012C26.5492 12.1012 24.9639 13.6672 24.8479 15.6199H27.2452C27.2839 14.8079 27.8832 14.0732 29.0625 14.0732C30.1645 14.0732 30.8025 14.6339 30.8025 15.4459C30.8025 15.8519 30.5512 16.1612 30.0679 16.1612H28.4245C26.2979 16.1612 24.8672 17.3212 24.8672 19.2352C24.8672 20.8979 26.1625 22.1546 28.0572 22.1546C29.3912 22.1546 30.4739 21.5552 30.8025 20.6466V21.9999H33.4705V15.7359ZM30.8025 17.9979C30.8025 19.2352 30.0485 20.2019 28.7339 20.2019C27.9799 20.2019 27.4385 19.7572 27.4385 19.1192C27.4385 18.3652 28.0185 17.8626 28.8305 17.8626H30.8025V17.9979Z" fill="#0A0D12"/>
  <path fill-rule="evenodd" clip-rule="evenodd" d="M44.7885 21.9999C42.5459 21.9999 41.0959 20.7239 41.0959 18.4619V9.37522H43.7832V12.2559H54.8898V14.4986L49.8438 19.7379H55.1798V21.6958L60.2069 8.46656H62.9715L68.1142 21.9999H65.0982L64.0349 19.0419H59.1435L58.0802 21.9999H44.7885ZM46.7118 19.7379L51.8158 14.4986H43.7832V18.3459C43.7832 19.2932 44.2859 19.7379 45.1559 19.7379H46.7118ZM61.5989 12.2172L60.0135 16.6059H63.1649L61.5989 12.2172Z" fill="#0A0D12"/>
  <path d="M37.2485 13.8799C37.7705 12.6619 38.5052 12.2559 39.6845 12.2559H40.3419V14.4986H39.1819C37.8479 14.4986 37.2485 15.6006 37.2485 17.2632V21.9999H34.5419V12.2559H37.2485V13.8799Z" fill="#0A0D12"/>
  <path d="M71.4542 8.46656H68.5349V21.9999H71.4542V8.46656Z" fill="#0A0D12"/>
</svg>