<svg xmlns="http://www.w3.org/2000/svg" width="30" height="32" viewBox="0 0 30 32" fill="none">
  <path fill-rule="evenodd" clip-rule="evenodd" d="M11.751 4.33337H21.6188L29.2629 16.7774L18.7438 27.41L3.61823 24.7128L0.179749 11.9062L11.751 4.33337ZM12.1026 7.6462L7.55852 17.7162L11.8588 21.2769L17.7418 18.7452L12.1026 7.6462ZM20.321 17.8462L26.4635 16.0413L21.6646 8.22904L20.321 17.8462ZM19.9101 6.33337H13.6789L18.5661 15.9523L19.9101 6.33337ZM24.5631 18.6842L20.0437 20.0122L19.6806 23.6194L24.5631 18.6842ZM17.5627 24.6896L17.951 20.8325L13.9128 22.5703L17.5627 24.6896ZM13.0031 24.3548L5.72805 23.0575L6.82635 19.7066L11.1183 23.2604L13.0031 24.3548ZM5.20458 18.2332L3.40212 16.1951L4.51457 20.3384L5.20458 18.2332ZM2.84837 12.55L6.05792 16.1791L9.72694 8.04825L2.84837 12.55Z" fill="#6938EF"/>
</svg>