<svg xmlns="http://www.w3.org/2000/svg" width="32" height="32" viewBox="0 0 32 32" fill="none">
  <path fill-rule="evenodd" clip-rule="evenodd" d="M12.2186 22.1377C12.7713 21.4745 13.5901 21.091 14.4535 21.091H26.1818C29.3951 21.091 32 18.4861 32 15.2728V12.3637C32 9.15042 29.3951 6.54553 26.1818 6.54553H23.908C23.0446 6.54553 22.2259 6.92902 21.6732 7.59227L19.7814 9.86243C19.2287 10.5257 18.4099 10.9092 17.5465 10.9092H5.81818C2.60489 10.9092 0 13.5141 0 16.7274V19.6364C0 22.8497 2.60489 25.4546 5.81818 25.4546H8.092C8.95536 25.4546 9.77412 25.0711 10.3268 24.4079L12.2186 22.1377ZM27.6364 12.3637C27.6364 11.5604 26.9851 10.9092 26.1818 10.9092H21.7262C20.8628 10.9092 20.0441 11.2927 19.4914 11.9559L17.5996 14.2261C17.0468 14.8893 16.2281 15.2728 15.3647 15.2728H5.81818C5.01486 15.2728 4.36364 15.924 4.36364 16.7274V19.6364C4.36364 20.4398 5.01486 21.091 5.81818 21.091H10.2738C11.1372 21.091 11.9559 20.7075 12.5086 20.0443L14.4004 17.7741C14.9532 17.1108 15.7719 16.7274 16.6353 16.7274H26.1818C26.9851 16.7274 27.6364 16.0761 27.6364 15.2728V12.3637Z" fill="#0A0D12"/>
</svg>