<svg xmlns="http://www.w3.org/2000/svg" width="96" height="32" viewBox="0 0 96 32" fill="none">
  <path d="M12.0967 22.0004L10.0987 14.9624L9.81066 13.6664L9.50466 14.9624L7.52466 22.0004H4.28466L0.666656 9.76041H3.74466L5.70666 17.7884L6.03066 19.2464L6.35466 17.7884L8.62266 9.76041H11.1427L13.3927 17.7884L13.7167 19.2464L14.0407 17.7884L16.0027 9.76041H18.9187L15.3007 22.0004H12.0967Z" fill="#0A0D12"/>
  <path d="M21.7756 15.5204H19.0216C19.3096 13.3424 20.9836 12.0104 23.4676 12.0104C26.2396 12.0104 27.6796 13.6304 27.6796 15.8804V19.5884C27.6796 20.8484 27.7876 21.4964 27.9496 22.0004H25.1056C25.0156 21.6764 24.9616 21.2624 24.9436 20.7944C24.1876 21.8384 23.0356 22.2884 21.8836 22.2884C20.0476 22.2884 18.6796 21.3524 18.6796 19.4984C18.6796 18.1844 19.4356 17.1764 20.9656 16.6364C22.2256 16.2224 23.4316 16.0964 24.9256 16.0784V15.8624C24.9256 14.8004 24.4036 14.2424 23.3416 14.2424C22.4056 14.2424 21.9016 14.7644 21.7756 15.5204ZM21.4336 19.3184C21.4336 19.9664 21.9196 20.3804 22.7296 20.3804C23.9536 20.3804 24.9256 19.3904 24.9256 18.0584V17.6804C22.1356 17.7344 21.4336 18.4184 21.4336 19.3184Z" fill="#0A0D12"/>
  <path d="M29.28 22.0004V12.3164H32.034V13.6664C32.646 12.5144 33.582 12.0104 34.572 12.0104C34.968 12.0104 35.328 12.1184 35.526 12.3164V14.6384C35.202 14.5664 34.86 14.5304 34.428 14.5304C32.772 14.5304 32.034 15.4664 32.034 16.9964V22.0004H29.28Z" fill="#0A0D12"/>
  <path d="M39.0217 25.9784H36.2677V12.3164H39.0217V13.3244C39.6157 12.4784 40.4437 12.0104 41.4517 12.0104C43.9537 12.0104 45.5197 13.9724 45.5197 17.1404C45.5197 20.4344 43.9177 22.2884 41.4517 22.2884C40.4257 22.2884 39.5977 21.8564 39.0217 21.0284V25.9784ZM40.8757 14.2424C39.6517 14.2424 39.0217 15.2684 39.0217 17.1404C39.0217 19.0124 39.6697 20.0564 40.8757 20.0564C42.0637 20.0564 42.6937 19.0304 42.6937 17.1404C42.6937 15.2684 42.0457 14.2424 40.8757 14.2424Z" fill="#0A0D12"/>
  <path d="M49.0068 14.9984C49.0068 16.9064 55.0008 15.2324 55.0008 19.0664C55.0008 20.9744 53.2368 22.2884 50.7168 22.2884C48.2688 22.2884 46.5048 21.2084 46.1448 18.8144H48.8988C49.0248 19.7144 49.7628 20.2004 50.7888 20.2004C51.7608 20.2004 52.2468 19.8224 52.2468 19.2284C52.2468 17.3564 46.3788 19.0304 46.3788 15.1424C46.3788 13.5224 47.6928 12.0104 50.2848 12.0104C52.6068 12.0104 54.3708 13.0724 54.6408 15.5204H51.9048C51.7428 14.5304 51.1668 14.1164 50.1948 14.1164C49.4748 14.1164 49.0068 14.4764 49.0068 14.9984Z" fill="#0A0D12"/>
  <path d="M58.7802 25.9784H56.0262V12.3164H58.7802V13.3244C59.3742 12.4784 60.2022 12.0104 61.2102 12.0104C63.7122 12.0104 65.2782 13.9724 65.2782 17.1404C65.2782 20.4344 63.6762 22.2884 61.2102 22.2884C60.1842 22.2884 59.3562 21.8564 58.7802 21.0284V25.9784ZM60.6342 14.2424C59.4102 14.2424 58.7802 15.2684 58.7802 17.1404C58.7802 19.0124 59.4282 20.0564 60.6342 20.0564C61.8222 20.0564 62.4522 19.0304 62.4522 17.1404C62.4522 15.2684 61.8042 14.2424 60.6342 14.2424Z" fill="#0A0D12"/>
  <path d="M75.4973 18.8144C74.9933 21.0464 73.1933 22.2884 70.8173 22.2884C67.8113 22.2884 65.9573 20.3444 65.9573 17.1584C65.9573 13.8644 67.8293 12.0104 70.7093 12.0104C73.6073 12.0104 75.4253 13.9364 75.4253 17.1044V17.7164H68.7653C68.9093 19.2644 69.6293 20.0924 70.8173 20.0924C71.7173 20.0924 72.3293 19.6964 72.6173 18.8144H75.4973ZM70.7093 14.2064C69.6833 14.2064 69.0353 14.8724 68.8193 16.1324H72.5813C72.3653 14.8724 71.7173 14.2064 70.7093 14.2064Z" fill="#0A0D12"/>
  <path d="M85.7018 18.8144C85.1978 21.0464 83.3978 22.2884 81.0218 22.2884C78.0158 22.2884 76.1618 20.3444 76.1618 17.1584C76.1618 13.8644 78.0338 12.0104 80.9138 12.0104C83.8118 12.0104 85.6298 13.9364 85.6298 17.1044V17.7164H78.9698C79.1138 19.2644 79.8338 20.0924 81.0218 20.0924C81.9218 20.0924 82.5338 19.6964 82.8218 18.8144H85.7018ZM80.9138 14.2064C79.8878 14.2064 79.2398 14.8724 79.0238 16.1324H82.7858C82.5698 14.8724 81.9218 14.2064 80.9138 14.2064Z" fill="#0A0D12"/>
  <path d="M90.4162 22.2884C87.9322 22.2884 86.3662 20.3444 86.3662 17.1584C86.3662 13.8644 87.9682 12.0104 90.4162 12.0104C91.4422 12.0104 92.2702 12.4424 92.8642 13.2704V9.04041H95.6182V22.0004H92.8642V20.9744C92.2702 21.8204 91.4242 22.2884 90.4162 22.2884ZM91.0102 20.0564C92.2342 20.0564 92.8642 19.0484 92.8642 17.1584C92.8642 15.2864 92.2162 14.2424 91.0102 14.2424C89.8222 14.2424 89.1922 15.2684 89.1922 17.1584C89.1922 19.0304 89.8402 20.0564 91.0102 20.0564Z" fill="#0A0D12"/>
</svg>